<?xml version="1.0" encoding="iso-8859-1"?>
<!-- Generator: Adobe Illustrator 19.0.0, SVG Export Plug-In . SVG Version: 6.00 Build 0)  -->
<svg version="1.1" id="Layer_1" xmlns="http://www.w3.org/2000/svg" xmlns:xlink="http://www.w3.org/1999/xlink" x="0px" y="0px"
	 viewBox="0 0 512 512" style="enable-background:new 0 0 512 512;" xml:space="preserve">
<g>
	<g>
		<path d="M0,183.652V512h512V183.652H0z M358.957,467.478H153.043v-38.957c18.97,0,29.103-8.545,36.502-14.783
			c5.635-4.753,8.208-6.921,14.979-6.921c6.77,0,9.341,2.168,14.975,6.92c7.398,6.239,17.533,14.785,36.501,14.785
			c18.968,0,29.102-8.545,36.5-14.785c5.634-4.752,8.205-6.92,14.974-6.92c6.772,0,9.344,2.168,14.979,6.921
			c7.4,6.239,17.533,14.783,36.502,14.783V467.478z M358.957,395.13c-6.771,0-9.343-2.168-14.978-6.92
			c-7.398-6.239-17.533-14.785-36.503-14.785c-18.968,0-29.102,8.545-36.5,14.785c-5.634,4.752-8.205,6.92-14.974,6.92
			c-6.77,0-9.341-2.168-14.975-6.92c-7.398-6.239-17.533-14.785-36.501-14.785c-18.971,0-29.104,8.545-36.503,14.785
			c-5.635,4.752-8.208,6.92-14.978,6.92v-27.472h0c0-15.499,12.671-28.18,28.158-28.18h58.103v-26.549
			c-10.69-5.895-17.932-17.27-17.932-30.339c0-18.434,14.248-45.508,34.628-54.416c20.38,8.908,34.628,35.981,34.628,54.416
			c0,13.069-7.244,24.445-17.932,30.339v26.549h58.103c15.487,0,28.158,12.681,28.158,28.18V395.13z"/>
	</g>
</g>
<g>
	<g>
		<path d="M456.348,33.391h-22.261v33.391c0,27.618-22.469,50.087-50.087,50.087s-50.087-22.469-50.087-50.087V33.391H178.087
			v33.391c0,27.618-22.469,50.087-50.087,50.087c-27.618,0-50.087-22.469-50.087-50.087V33.391H55.652
			C25.044,33.391,0,58.435,0,89.044v61.217h512V89.044C512,58.435,486.957,33.391,456.348,33.391z"/>
	</g>
</g>
<g>
	<g>
		<path d="M128,0c-9.22,0-16.696,7.475-16.696,16.696v50.087c0,9.22,7.475,16.696,16.696,16.696s16.696-7.475,16.696-16.696V16.696
			C144.696,7.475,137.22,0,128,0z"/>
	</g>
</g>
<g>
	<g>
		<path d="M384,0c-9.22,0-16.696,7.475-16.696,16.696v50.087c0,9.22,7.475,16.696,16.696,16.696s16.696-7.475,16.696-16.696V16.696
			C400.696,7.475,393.22,0,384,0z"/>
	</g>
</g>
<g>
</g>
<g>
</g>
<g>
</g>
<g>
</g>
<g>
</g>
<g>
</g>
<g>
</g>
<g>
</g>
<g>
</g>
<g>
</g>
<g>
</g>
<g>
</g>
<g>
</g>
<g>
</g>
<g>
</g>
</svg>
